<svg xmlns="http://www.w3.org/2000/svg" version="1.1" xmlns:xlink="http://www.w3.org/1999/xlink" xmlns:svgjs="http://svgjs.dev/svgjs" width="1440" height="560" preserveAspectRatio="none" viewBox="0 0 1440 560"><g mask="url(&quot;#SvgjsMask1059&quot;)" fill="none"><rect width="1440" height="560" x="0" y="0" fill="url(&quot;#SvgjsLinearGradient1060&quot;)"></rect><path d="M190.81 196.75L190.81 200.47L208.6 200.47L208.6 196.75zM202 198.61 a6.6 6.6 0 1 0 13.2 0 a6.6 6.6 0 1 0 -13.2 0zM186.11 224.12L184.68 227.57L200.43 234.09L201.86 230.65zM194.54 232.37 a6.6 6.6 0 1 0 13.2 0 a6.6 6.6 0 1 0 -13.2 0zM171.28 247.62L168.65 250.25L178.61 260.21L181.25 257.58zM173.33 258.9 a6.6 6.6 0 1 0 13.2 0 a6.6 6.6 0 1 0 -13.2 0zM148.6 263.65L145.15 265.07L158.49 297.26L161.93 295.84zM153.61 296.55 a6.6 6.6 0 1 0 13.2 0 a6.6 6.6 0 1 0 -13.2 0zM121.5 269.78L117.78 269.78L117.78 302.61L121.5 302.61zM113.04 302.61 a6.6 6.6 0 1 0 13.2 0 a6.6 6.6 0 1 0 -13.2 0zM94.13 265.07L90.68 263.65L84.55 278.47L87.99 279.89zM79.67 279.18 a6.6 6.6 0 1 0 13.2 0 a6.6 6.6 0 1 0 -13.2 0zM70.63 250.25L68 247.62L53.15 262.46L55.79 265.1zM47.87 263.78 a6.6 6.6 0 1 0 13.2 0 a6.6 6.6 0 1 0 -13.2 0zM54.6 227.57L53.18 224.12L29.18 234.06L30.61 237.5zM23.3 235.78 a6.6 6.6 0 1 0 13.2 0 a6.6 6.6 0 1 0 -13.2 0zM48.47 200.47L48.47 196.75L37.17 196.75L37.17 200.47zM30.57 198.61 a6.6 6.6 0 1 0 13.2 0 a6.6 6.6 0 1 0 -13.2 0zM53.18 173.1L54.6 169.65L31.99 160.29L30.57 163.73zM24.68 162.01 a6.6 6.6 0 1 0 13.2 0 a6.6 6.6 0 1 0 -13.2 0zM68 149.6L70.63 146.97L55.59 131.93L52.96 134.56zM47.68 133.24 a6.6 6.6 0 1 0 13.2 0 a6.6 6.6 0 1 0 -13.2 0zM90.68 133.57L94.13 132.14L83.11 105.56L79.67 106.98zM74.79 106.27 a6.6 6.6 0 1 0 13.2 0 a6.6 6.6 0 1 0 -13.2 0zM117.78 127.44L121.5 127.44L121.5 108.4L117.78 108.4zM113.04 108.4 a6.6 6.6 0 1 0 13.2 0 a6.6 6.6 0 1 0 -13.2 0zM145.15 132.14L148.6 133.57L152.25 124.76L148.81 123.33zM143.93 124.04 a6.6 6.6 0 1 0 13.2 0 a6.6 6.6 0 1 0 -13.2 0zM168.65 146.97L171.28 149.6L182.94 137.94L180.31 135.31zM175.03 136.62 a6.6 6.6 0 1 0 13.2 0 a6.6 6.6 0 1 0 -13.2 0zM184.68 169.65L186.11 173.1L195.99 169L194.57 165.56zM188.68 167.28 a6.6 6.6 0 1 0 13.2 0 a6.6 6.6 0 1 0 -13.2 0zM48.45 198.61 a71.19 71.19 0 1 0 142.38 0 a71.19 71.19 0 1 0 -142.38 0z" fill="rgba(90, 66, 80, 1)"></path><path d="M150.29 134.35 A70.1936 70.1936 0 0 1 160.09 257.2M160.09 257.2 A142.3872 142.3872 0 0 0 150.29 134.35" fill="#483540" fill-rule="nonzero"></path><path d="M115.13 213.39 a14.24 14.24 0 1 0 28.48 0 a14.24 14.24 0 1 0 -28.48 0zM152.24 231.87 a3.56 3.56 0 1 0 7.12 0 a3.56 3.56 0 1 0 -7.12 0zM175.29 189.43 a7.12 7.12 0 1 0 14.24 0 a7.12 7.12 0 1 0 -14.24 0zM65.7 195.95 a14.24 14.24 0 1 0 28.48 0 a14.24 14.24 0 1 0 -28.48 0zM71.47 238.53 a14.24 14.24 0 1 0 28.48 0 a14.24 14.24 0 1 0 -28.48 0zM143 147.61 a9.97 9.97 0 1 0 19.94 0 a9.97 9.97 0 1 0 -19.94 0zM75.48 155.22 a12.81 12.81 0 1 0 25.62 0 a12.81 12.81 0 1 0 -25.62 0zM111.79 250.88 a2.85 2.85 0 1 0 5.7 0 a2.85 2.85 0 1 0 -5.7 0zM144.37 179.37 a7.12 7.12 0 1 0 14.24 0 a7.12 7.12 0 1 0 -14.24 0zM115.51 156.61 a4.27 4.27 0 1 0 8.54 0 a4.27 4.27 0 1 0 -8.54 0z" fill="#483540" fill-rule="nonzero"></path><path d="M994.22 127.97L994.22 131.7L1006.23 131.7L1006.23 127.97zM999.63 129.83 a6.6 6.6 0 1 0 13.2 0 a6.6 6.6 0 1 0 -13.2 0zM989.51 155.35L988.09 158.79L1016.12 170.4L1017.54 166.96zM1010.23 168.68 a6.6 6.6 0 1 0 13.2 0 a6.6 6.6 0 1 0 -13.2 0zM974.69 178.84L972.05 181.48L987.46 196.88L990.09 194.24zM982.17 195.56 a6.6 6.6 0 1 0 13.2 0 a6.6 6.6 0 1 0 -13.2 0zM952.01 194.87L948.56 196.3L953.21 207.52L956.66 206.1zM948.33 206.81 a6.6 6.6 0 1 0 13.2 0 a6.6 6.6 0 1 0 -13.2 0zM924.91 201L921.18 201L921.18 214.37L924.91 214.37zM916.45 214.37 a6.6 6.6 0 1 0 13.2 0 a6.6 6.6 0 1 0 -13.2 0zM897.53 196.3L894.09 194.87L888.93 207.34L892.37 208.76zM884.05 208.05 a6.6 6.6 0 1 0 13.2 0 a6.6 6.6 0 1 0 -13.2 0zM874.04 181.48L871.41 178.84L849.34 200.91L851.97 203.55zM844.06 202.23 a6.6 6.6 0 1 0 13.2 0 a6.6 6.6 0 1 0 -13.2 0zM858.01 158.79L856.58 155.35L825.08 168.4L826.51 171.84zM819.19 170.12 a6.6 6.6 0 1 0 13.2 0 a6.6 6.6 0 1 0 -13.2 0zM851.88 131.7L851.88 127.97L821.91 127.97L821.91 131.7zM815.31 129.83 a6.6 6.6 0 1 0 13.2 0 a6.6 6.6 0 1 0 -13.2 0zM856.58 104.32L858.01 100.88L842.53 94.47L841.11 97.91zM835.22 96.19 a6.6 6.6 0 1 0 13.2 0 a6.6 6.6 0 1 0 -13.2 0zM871.41 80.83L874.04 78.19L859.52 63.67L856.88 66.3zM851.6 64.99 a6.6 6.6 0 1 0 13.2 0 a6.6 6.6 0 1 0 -13.2 0zM894.09 64.8L897.53 63.37L886.8 37.46L883.36 38.89zM878.48 38.18 a6.6 6.6 0 1 0 13.2 0 a6.6 6.6 0 1 0 -13.2 0zM921.18 58.67L924.91 58.67L924.91 25.1L921.18 25.1zM916.45 25.1 a6.6 6.6 0 1 0 13.2 0 a6.6 6.6 0 1 0 -13.2 0zM948.56 63.37L952.01 64.8L961.36 42.22L957.91 40.79zM953.04 41.5 a6.6 6.6 0 1 0 13.2 0 a6.6 6.6 0 1 0 -13.2 0zM972.05 78.19L974.69 80.83L994.36 61.16L991.72 58.53zM986.44 59.85 a6.6 6.6 0 1 0 13.2 0 a6.6 6.6 0 1 0 -13.2 0zM988.09 100.88L989.51 104.32L1001.61 99.31L1000.18 95.87zM994.29 97.59 a6.6 6.6 0 1 0 13.2 0 a6.6 6.6 0 1 0 -13.2 0zM851.86 129.83 a71.19 71.19 0 1 0 142.38 0 a71.19 71.19 0 1 0 -142.38 0z" fill="rgba(90, 66, 80, 1)"></path><path d="M854.7 149.77 A70.1936 70.1936 0 0 1 939.81 60.64M939.81 60.64 A142.3872 142.3872 0 0 0 854.7 149.77" fill="#483540" fill-rule="nonzero"></path><path d="M904.97 191.22 a8.54 8.54 0 1 0 17.08 0 a8.54 8.54 0 1 0 -17.08 0zM928.13 99.47 a14.24 14.24 0 1 0 28.48 0 a14.24 14.24 0 1 0 -28.48 0zM876.45 132.5 a14.24 14.24 0 1 0 28.48 0 a14.24 14.24 0 1 0 -28.48 0zM937.35 144.28 a14.24 14.24 0 1 0 28.48 0 a14.24 14.24 0 1 0 -28.48 0zM868.12 172.08 a5.7 5.7 0 1 0 11.4 0 a5.7 5.7 0 1 0 -11.4 0zM928.85 63.4 a3.56 3.56 0 1 0 7.12 0 a3.56 3.56 0 1 0 -7.12 0zM909.96 85.2 a3.56 3.56 0 1 0 7.12 0 a3.56 3.56 0 1 0 -7.12 0zM893.58 67.96 a4.27 4.27 0 1 0 8.54 0 a4.27 4.27 0 1 0 -8.54 0zM959.25 74.77 a2.85 2.85 0 1 0 5.7 0 a2.85 2.85 0 1 0 -5.7 0zM918.34 125.05 a2.85 2.85 0 1 0 5.7 0 a2.85 2.85 0 1 0 -5.7 0z" fill="#483540" fill-rule="nonzero"></path><path d="M444.02 263.17L444.02 265.97L458.1 265.97L458.1 263.17zM453.15 264.57 a4.95 4.95 0 1 0 9.9 0 a4.95 4.95 0 1 0 -9.9 0zM440.49 283.7L439.42 286.29L454.24 292.43L455.31 289.84zM449.82 291.13 a4.95 4.95 0 1 0 9.9 0 a4.95 4.95 0 1 0 -9.9 0zM429.37 301.32L427.4 303.3L433.12 309.02L435.09 307.04zM429.15 308.03 a4.95 4.95 0 1 0 9.9 0 a4.95 4.95 0 1 0 -9.9 0zM412.36 313.35L409.78 314.42L418.63 335.79L421.21 334.72zM414.97 335.25 a4.95 4.95 0 1 0 9.9 0 a4.95 4.95 0 1 0 -9.9 0zM392.04 317.95L389.24 317.95L389.24 332.6L392.04 332.6zM385.69 332.6 a4.95 4.95 0 1 0 9.9 0 a4.95 4.95 0 1 0 -9.9 0zM371.51 314.42L368.92 313.35L359.43 336.26L362.01 337.33zM355.77 336.8 a4.95 4.95 0 1 0 9.9 0 a4.95 4.95 0 1 0 -9.9 0zM353.89 303.3L351.91 301.32L344.24 309L346.21 310.97zM340.27 309.98 a4.95 4.95 0 1 0 9.9 0 a4.95 4.95 0 1 0 -9.9 0zM341.86 286.29L340.79 283.7L331.34 287.62L332.41 290.2zM326.93 288.91 a4.95 4.95 0 1 0 9.9 0 a4.95 4.95 0 1 0 -9.9 0zM337.26 265.97L337.26 263.17L330.09 263.17L330.09 265.97zM325.14 264.57 a4.95 4.95 0 1 0 9.9 0 a4.95 4.95 0 1 0 -9.9 0zM340.79 245.43L341.86 242.85L326.3 236.41L325.23 238.99zM320.82 237.7 a4.95 4.95 0 1 0 9.9 0 a4.95 4.95 0 1 0 -9.9 0zM351.91 227.81L353.89 225.84L343.27 215.22L341.3 217.2zM337.33 216.21 a4.95 4.95 0 1 0 9.9 0 a4.95 4.95 0 1 0 -9.9 0zM368.92 215.79L371.51 214.72L367.49 205.04L364.91 206.11zM361.25 205.57 a4.95 4.95 0 1 0 9.9 0 a4.95 4.95 0 1 0 -9.9 0zM389.24 211.19L392.04 211.19L392.04 201.53L389.24 201.53zM385.69 201.53 a4.95 4.95 0 1 0 9.9 0 a4.95 4.95 0 1 0 -9.9 0zM409.78 214.72L412.36 215.79L421.3 194.21L418.71 193.14zM415.06 193.67 a4.95 4.95 0 1 0 9.9 0 a4.95 4.95 0 1 0 -9.9 0zM427.4 225.84L429.37 227.81L435.45 221.73L433.48 219.76zM429.51 220.74 a4.95 4.95 0 1 0 9.9 0 a4.95 4.95 0 1 0 -9.9 0zM439.42 242.85L440.49 245.43L464.16 235.63L463.09 233.05zM458.67 234.34 a4.95 4.95 0 1 0 9.9 0 a4.95 4.95 0 1 0 -9.9 0zM337.24 264.57 a53.4 53.4 0 1 0 106.8 0 a53.4 53.4 0 1 0 -106.8 0z" fill="rgba(90, 66, 80, 1)"></path><path d="M408.52 314.88 A52.3952 52.3952 0 0 1 338.11 255M338.11 255 A106.7904 106.7904 0 0 0 408.52 314.88" fill="#483540" fill-rule="nonzero"></path><path d="M389.4 241.01 a10.68 10.68 0 1 0 21.36 0 a10.68 10.68 0 1 0 -21.36 0zM353.58 296.46 a10.68 10.68 0 1 0 21.36 0 a10.68 10.68 0 1 0 -21.36 0zM341.7 245.98 a8.54 8.54 0 1 0 17.08 0 a8.54 8.54 0 1 0 -17.08 0zM421.71 240.6 a5.87 5.87 0 1 0 11.74 0 a5.87 5.87 0 1 0 -11.74 0zM349.78 270.05 a4.81 4.81 0 1 0 9.62 0 a4.81 4.81 0 1 0 -9.62 0zM384.62 304.7 a3.74 3.74 0 1 0 7.48 0 a3.74 3.74 0 1 0 -7.48 0zM419.49 286.58 a9.08 9.08 0 1 0 18.16 0 a9.08 9.08 0 1 0 -18.16 0zM383.39 285.95 a2.14 2.14 0 1 0 4.28 0 a2.14 2.14 0 1 0 -4.28 0zM432.81 259.31 a4.27 4.27 0 1 0 8.54 0 a4.27 4.27 0 1 0 -8.54 0zM369.5 245.01 a3.2 3.2 0 1 0 6.4 0 a3.2 3.2 0 1 0 -6.4 0z" fill="#483540" fill-rule="nonzero"></path><path d="M1001.59 457.28L1001.59 460.54L1021.2 460.54L1021.2 457.28zM1015.42 458.91 a5.78 5.78 0 1 0 11.56 0 a5.78 5.78 0 1 0 -11.56 0zM997.47 481.24L996.22 484.25L1019.66 493.96L1020.91 490.95zM1014.51 492.45 a5.78 5.78 0 1 0 11.56 0 a5.78 5.78 0 1 0 -11.56 0zM984.5 501.79L982.2 504.1L990.43 512.34L992.74 510.03zM985.81 511.19 a5.78 5.78 0 1 0 11.56 0 a5.78 5.78 0 1 0 -11.56 0zM964.65 515.82L961.64 517.07L973.04 544.59L976.05 543.35zM968.77 543.97 a5.78 5.78 0 1 0 11.56 0 a5.78 5.78 0 1 0 -11.56 0zM940.95 521.19L937.69 521.19L937.69 532.43L940.95 532.43zM933.54 532.43 a5.78 5.78 0 1 0 11.56 0 a5.78 5.78 0 1 0 -11.56 0zM916.99 517.07L913.98 515.82L909.63 526.32L912.64 527.57zM905.36 526.94 a5.78 5.78 0 1 0 11.56 0 a5.78 5.78 0 1 0 -11.56 0zM896.44 504.1L894.13 501.79L879.56 516.36L881.87 518.67zM874.94 517.51 a5.78 5.78 0 1 0 11.56 0 a5.78 5.78 0 1 0 -11.56 0zM882.41 484.25L881.16 481.24L867.21 487.02L868.46 490.03zM862.05 488.52 a5.78 5.78 0 1 0 11.56 0 a5.78 5.78 0 1 0 -11.56 0zM877.04 460.54L877.04 457.28L849.17 457.28L849.17 460.54zM843.39 458.91 a5.78 5.78 0 1 0 11.56 0 a5.78 5.78 0 1 0 -11.56 0zM881.16 436.59L882.41 433.58L874.12 430.14L872.87 433.16zM867.72 431.65 a5.78 5.78 0 1 0 11.56 0 a5.78 5.78 0 1 0 -11.56 0zM894.13 416.03L896.44 413.73L883.62 400.91L881.31 403.21zM876.68 402.06 a5.78 5.78 0 1 0 11.56 0 a5.78 5.78 0 1 0 -11.56 0zM913.98 402.01L916.99 400.76L910.51 385.12L907.5 386.36zM903.23 385.74 a5.78 5.78 0 1 0 11.56 0 a5.78 5.78 0 1 0 -11.56 0zM937.69 396.64L940.95 396.64L940.95 381.87L937.69 381.87zM933.54 381.87 a5.78 5.78 0 1 0 11.56 0 a5.78 5.78 0 1 0 -11.56 0zM961.64 400.76L964.65 402.01L969.44 390.46L966.42 389.21zM962.15 389.83 a5.78 5.78 0 1 0 11.56 0 a5.78 5.78 0 1 0 -11.56 0zM982.2 413.73L984.5 416.03L1002.95 397.59L1000.64 395.28zM996.02 396.43 a5.78 5.78 0 1 0 11.56 0 a5.78 5.78 0 1 0 -11.56 0zM996.22 433.58L997.47 436.59L1006.4 432.89L1005.15 429.88zM999.99 431.39 a5.78 5.78 0 1 0 11.56 0 a5.78 5.78 0 1 0 -11.56 0zM877.03 458.91 a62.29 62.29 0 1 0 124.58 0 a62.29 62.29 0 1 0 -124.58 0z" fill="rgba(90, 66, 80, 1)"></path><path d="M962.5 516.73 A61.294399999999996 61.294399999999996 0 0 1 877.63 450.21M877.63 450.21 A124.58879999999999 124.58879999999999 0 0 0 962.5 516.73" fill="#483540" fill-rule="nonzero"></path><path d="M897.76 486.18 a12.46 12.46 0 1 0 24.92 0 a12.46 12.46 0 1 0 -24.92 0zM891.17 439.37 a12.46 12.46 0 1 0 24.92 0 a12.46 12.46 0 1 0 -24.92 0zM939.44 423.47 a12.46 12.46 0 1 0 24.92 0 a12.46 12.46 0 1 0 -24.92 0zM956.65 456.62 a11.84 11.84 0 1 0 23.68 0 a11.84 11.84 0 1 0 -23.68 0zM961.31 506.64 a6.23 6.23 0 1 0 12.46 0 a6.23 6.23 0 1 0 -12.46 0zM915.07 413.16 a6.23 6.23 0 1 0 12.46 0 a6.23 6.23 0 1 0 -12.46 0zM945.29 476.11 a3.11 3.11 0 1 0 6.22 0 a3.11 3.11 0 1 0 -6.22 0zM976.8 425.83 a6.85 6.85 0 1 0 13.7 0 a6.85 6.85 0 1 0 -13.7 0zM991 466.91 a3.74 3.74 0 1 0 7.48 0 a3.74 3.74 0 1 0 -7.48 0zM934.68 517.23 a3.74 3.74 0 1 0 7.48 0 a3.74 3.74 0 1 0 -7.48 0z" fill="#483540" fill-rule="nonzero"></path><path d="M299.65 497.75L299.65 499.62L307.37 499.62L307.37 497.75zM304.07 498.69 a3.3 3.3 0 1 0 6.6 0 a3.3 3.3 0 1 0 -6.6 0zM297.3 511.44L296.58 513.17L311.18 519.21L311.89 517.49zM308.24 518.35 a3.3 3.3 0 1 0 6.6 0 a3.3 3.3 0 1 0 -6.6 0zM289.88 523.19L288.57 524.51L296.16 532.1L297.48 530.78zM293.52 531.44 a3.3 3.3 0 1 0 6.6 0 a3.3 3.3 0 1 0 -6.6 0zM278.54 531.21L276.82 531.92L281.52 543.26L283.24 542.54zM279.08 542.9 a3.3 3.3 0 1 0 6.6 0 a3.3 3.3 0 1 0 -6.6 0zM265 534.27L263.13 534.27L263.13 547.51L265 547.51zM260.76 547.51 a3.3 3.3 0 1 0 6.6 0 a3.3 3.3 0 1 0 -6.6 0zM251.31 531.92L249.58 531.21L246.42 538.84L248.15 539.55zM243.98 539.19 a3.3 3.3 0 1 0 6.6 0 a3.3 3.3 0 1 0 -6.6 0zM239.56 524.51L238.24 523.19L232.93 528.5L234.25 529.82zM230.29 529.16 a3.3 3.3 0 1 0 6.6 0 a3.3 3.3 0 1 0 -6.6 0zM231.54 513.17L230.83 511.44L224.56 514.04L225.27 515.76zM221.61 514.9 a3.3 3.3 0 1 0 6.6 0 a3.3 3.3 0 1 0 -6.6 0zM228.48 499.62L228.48 497.75L217.14 497.75L217.14 499.62zM213.84 498.69 a3.3 3.3 0 1 0 6.6 0 a3.3 3.3 0 1 0 -6.6 0zM230.83 485.93L231.54 484.21L222.94 480.65L222.23 482.37zM219.29 481.51 a3.3 3.3 0 1 0 6.6 0 a3.3 3.3 0 1 0 -6.6 0zM238.24 474.18L239.56 472.87L230.78 464.09L229.47 465.41zM226.83 464.75 a3.3 3.3 0 1 0 6.6 0 a3.3 3.3 0 1 0 -6.6 0zM249.58 466.17L251.31 465.45L245.98 452.59L244.26 453.31zM241.82 452.95 a3.3 3.3 0 1 0 6.6 0 a3.3 3.3 0 1 0 -6.6 0zM263.13 463.1L265 463.1L265 456.85L263.13 456.85zM260.76 456.85 a3.3 3.3 0 1 0 6.6 0 a3.3 3.3 0 1 0 -6.6 0zM276.82 465.45L278.54 466.17L285 450.57L283.28 449.86zM280.84 450.22 a3.3 3.3 0 1 0 6.6 0 a3.3 3.3 0 1 0 -6.6 0zM288.57 472.87L289.88 474.18L297.39 466.67L296.08 465.36zM293.43 466.02 a3.3 3.3 0 1 0 6.6 0 a3.3 3.3 0 1 0 -6.6 0zM296.58 484.21L297.3 485.93L308.92 481.12L308.2 479.39zM305.26 480.25 a3.3 3.3 0 1 0 6.6 0 a3.3 3.3 0 1 0 -6.6 0zM228.46 498.69 a35.6 35.6 0 1 0 71.2 0 a35.6 35.6 0 1 0 -71.2 0z" fill="rgba(156, 72, 219, 1)"></path><path d="M243.88 528.01 A34.5968 34.5968 0 0 1 248.69 466.58M248.69 466.58 A71.1936 71.1936 0 0 0 243.88 528.01" fill="#8026c3" fill-rule="nonzero"></path><path d="M237.93 488.39 a7.12 7.12 0 1 0 14.24 0 a7.12 7.12 0 1 0 -14.24 0zM263 485.64 a7.12 7.12 0 1 0 14.24 0 a7.12 7.12 0 1 0 -14.24 0zM261.16 506.82 a6.76 6.76 0 1 0 13.52 0 a6.76 6.76 0 1 0 -13.52 0zM290.56 512.88 a2.85 2.85 0 1 0 5.7 0 a2.85 2.85 0 1 0 -5.7 0zM243.63 515.1 a6.05 6.05 0 1 0 12.1 0 a6.05 6.05 0 1 0 -12.1 0zM228.84 495.53 a1.78 1.78 0 1 0 3.56 0 a1.78 1.78 0 1 0 -3.56 0zM263.44 525.88 a4.98 4.98 0 1 0 9.96 0 a4.98 4.98 0 1 0 -9.96 0zM268.31 467.05 a2.85 2.85 0 1 0 5.7 0 a2.85 2.85 0 1 0 -5.7 0zM287.38 484.12 a4.27 4.27 0 1 0 8.54 0 a4.27 4.27 0 1 0 -8.54 0zM252.36 467.87 a3.56 3.56 0 1 0 7.12 0 a3.56 3.56 0 1 0 -7.12 0z" fill="#8026c3" fill-rule="nonzero"></path><path d="M729.37 270.52L729.37 273.78L754.17 273.78L754.17 270.52zM748.39 272.15 a5.78 5.78 0 1 0 11.56 0 a5.78 5.78 0 1 0 -11.56 0zM725.25 294.48L724 297.49L732.1 300.84L733.35 297.83zM726.94 299.34 a5.78 5.78 0 1 0 11.56 0 a5.78 5.78 0 1 0 -11.56 0zM712.28 315.03L709.98 317.34L727.15 334.51L729.45 332.2zM722.52 333.35 a5.78 5.78 0 1 0 11.56 0 a5.78 5.78 0 1 0 -11.56 0zM692.43 329.06L689.42 330.31L695.63 345.3L698.64 344.06zM691.36 344.68 a5.78 5.78 0 1 0 11.56 0 a5.78 5.78 0 1 0 -11.56 0zM668.73 334.43L665.47 334.43L665.47 351.29L668.73 351.29zM661.32 351.29 a5.78 5.78 0 1 0 11.56 0 a5.78 5.78 0 1 0 -11.56 0zM644.77 330.31L641.76 329.06L637.38 339.64L640.39 340.89zM633.1 340.26 a5.78 5.78 0 1 0 11.56 0 a5.78 5.78 0 1 0 -11.56 0zM624.22 317.34L621.91 315.03L615.04 321.9L617.35 324.2zM610.42 323.05 a5.78 5.78 0 1 0 11.56 0 a5.78 5.78 0 1 0 -11.56 0zM610.19 297.49L608.94 294.48L580.52 306.25L581.77 309.26zM575.36 307.75 a5.78 5.78 0 1 0 11.56 0 a5.78 5.78 0 1 0 -11.56 0zM604.82 273.78L604.82 270.52L583.6 270.52L583.6 273.78zM577.82 272.15 a5.78 5.78 0 1 0 11.56 0 a5.78 5.78 0 1 0 -11.56 0zM608.94 249.83L610.19 246.81L602.95 243.82L601.71 246.83zM596.55 245.32 a5.78 5.78 0 1 0 11.56 0 a5.78 5.78 0 1 0 -11.56 0zM621.91 229.27L624.22 226.97L604.22 206.97L601.91 209.27zM597.29 208.12 a5.78 5.78 0 1 0 11.56 0 a5.78 5.78 0 1 0 -11.56 0zM641.76 215.24L644.77 214L639.9 202.24L636.89 203.49zM632.62 202.87 a5.78 5.78 0 1 0 11.56 0 a5.78 5.78 0 1 0 -11.56 0zM665.47 209.88L668.73 209.88L668.73 186.97L665.47 186.97zM661.32 186.97 a5.78 5.78 0 1 0 11.56 0 a5.78 5.78 0 1 0 -11.56 0zM689.42 214L692.43 215.24L699.11 199.13L696.09 197.88zM691.82 198.51 a5.78 5.78 0 1 0 11.56 0 a5.78 5.78 0 1 0 -11.56 0zM709.98 226.97L712.28 229.27L721.91 219.65L719.6 217.34zM714.97 218.49 a5.78 5.78 0 1 0 11.56 0 a5.78 5.78 0 1 0 -11.56 0zM724 246.81L725.25 249.83L744.45 241.88L743.2 238.86zM738.05 240.37 a5.78 5.78 0 1 0 11.56 0 a5.78 5.78 0 1 0 -11.56 0zM604.81 272.15 a62.29 62.29 0 1 0 124.58 0 a62.29 62.29 0 1 0 -124.58 0z" fill="rgba(156, 72, 219, 1)"></path><path d="M725.81 292.98 A61.294399999999996 61.294399999999996 0 0 1 619.79 312.68M619.79 312.68 A124.58879999999999 124.58879999999999 0 0 0 725.81 292.98" fill="#8026c3" fill-rule="nonzero"></path><path d="M642.04 235.44 a12.46 12.46 0 1 0 24.92 0 a12.46 12.46 0 1 0 -24.92 0zM660.3 326.23 a8.1 8.1 0 1 0 16.2 0 a8.1 8.1 0 1 0 -16.2 0zM629.45 283.8 a12.46 12.46 0 1 0 24.92 0 a12.46 12.46 0 1 0 -24.92 0zM624.6 309.57 a3.74 3.74 0 1 0 7.48 0 a3.74 3.74 0 1 0 -7.48 0zM672.47 214.68 a3.74 3.74 0 1 0 7.48 0 a3.74 3.74 0 1 0 -7.48 0zM606.26 259.95 a4.98 4.98 0 1 0 9.96 0 a4.98 4.98 0 1 0 -9.96 0zM697.9 275.53 a12.46 12.46 0 1 0 24.92 0 a12.46 12.46 0 1 0 -24.92 0zM674.7 303.23 a4.98 4.98 0 1 0 9.96 0 a4.98 4.98 0 1 0 -9.96 0zM668.32 264 a9.34 9.34 0 1 0 18.68 0 a9.34 9.34 0 1 0 -18.68 0zM692.61 246.11 a4.36 4.36 0 1 0 8.72 0 a4.36 4.36 0 1 0 -8.72 0z" fill="#8026c3" fill-rule="nonzero"></path><path d="M1395.96 191.56L1395.96 194.35L1407.04 194.35L1407.04 191.56zM1402.09 192.96 a4.95 4.95 0 1 0 9.9 0 a4.95 4.95 0 1 0 -9.9 0zM1392.43 212.09L1391.36 214.67L1410.91 222.77L1411.98 220.19zM1406.5 221.48 a4.95 4.95 0 1 0 9.9 0 a4.95 4.95 0 1 0 -9.9 0zM1381.31 229.71L1379.34 231.69L1387.27 239.62L1389.25 237.64zM1383.31 238.63 a4.95 4.95 0 1 0 9.9 0 a4.95 4.95 0 1 0 -9.9 0zM1364.3 241.73L1361.72 242.8L1368.66 259.57L1371.25 258.5zM1365 259.04 a4.95 4.95 0 1 0 9.9 0 a4.95 4.95 0 1 0 -9.9 0zM1343.98 246.33L1341.18 246.33L1341.18 258.12L1343.98 258.12zM1337.63 258.12 a4.95 4.95 0 1 0 9.9 0 a4.95 4.95 0 1 0 -9.9 0zM1323.45 242.8L1320.86 241.73L1315.36 255.03L1317.94 256.1zM1311.7 255.56 a4.95 4.95 0 1 0 9.9 0 a4.95 4.95 0 1 0 -9.9 0zM1305.83 231.69L1303.85 229.71L1293.68 239.88L1295.66 241.86zM1289.72 240.87 a4.95 4.95 0 1 0 9.9 0 a4.95 4.95 0 1 0 -9.9 0zM1293.8 214.67L1292.73 212.09L1283.89 215.75L1284.96 218.34zM1279.48 217.04 a4.95 4.95 0 1 0 9.9 0 a4.95 4.95 0 1 0 -9.9 0zM1289.21 194.35L1289.21 191.56L1277.87 191.56L1277.87 194.35zM1272.92 192.96 a4.95 4.95 0 1 0 9.9 0 a4.95 4.95 0 1 0 -9.9 0zM1292.73 173.82L1293.8 171.24L1281.43 166.11L1280.36 168.7zM1275.95 167.41 a4.95 4.95 0 1 0 9.9 0 a4.95 4.95 0 1 0 -9.9 0zM1303.85 156.2L1305.83 154.22L1291.77 140.17L1289.79 142.14zM1285.83 141.16 a4.95 4.95 0 1 0 9.9 0 a4.95 4.95 0 1 0 -9.9 0zM1320.86 144.18L1323.45 143.11L1314.89 122.44L1312.3 123.51zM1308.65 122.97 a4.95 4.95 0 1 0 9.9 0 a4.95 4.95 0 1 0 -9.9 0zM1341.18 139.58L1343.98 139.58L1343.98 125.37L1341.18 125.37zM1337.63 125.37 a4.95 4.95 0 1 0 9.9 0 a4.95 4.95 0 1 0 -9.9 0zM1361.72 143.11L1364.3 144.18L1367.78 135.77L1365.2 134.7zM1361.54 135.23 a4.95 4.95 0 1 0 9.9 0 a4.95 4.95 0 1 0 -9.9 0zM1379.34 154.22L1381.31 156.2L1395.97 141.54L1394 139.57zM1390.03 140.55 a4.95 4.95 0 1 0 9.9 0 a4.95 4.95 0 1 0 -9.9 0zM1391.36 171.24L1392.43 173.82L1399.31 170.97L1398.24 168.39zM1393.83 169.68 a4.95 4.95 0 1 0 9.9 0 a4.95 4.95 0 1 0 -9.9 0zM1289.18 192.96 a53.4 53.4 0 1 0 106.8 0 a53.4 53.4 0 1 0 -106.8 0z" fill="rgba(156, 72, 219, 1)"></path><path d="M1297.49 221.55 A52.3952 52.3952 0 0 1 1340.25 139.61M1340.25 139.61 A106.7904 106.7904 0 0 0 1297.49 221.55" fill="#8026c3" fill-rule="nonzero"></path><path d="M1302.54 210.57 a10.68 10.68 0 1 0 21.36 0 a10.68 10.68 0 1 0 -21.36 0zM1314.42 154.5 a10.68 10.68 0 1 0 21.36 0 a10.68 10.68 0 1 0 -21.36 0zM1338.73 202.61 a10.68 10.68 0 1 0 21.36 0 a10.68 10.68 0 1 0 -21.36 0zM1347.29 238.23 a6.41 6.41 0 1 0 12.82 0 a6.41 6.41 0 1 0 -12.82 0zM1369 183.52 a10.68 10.68 0 1 0 21.36 0 a10.68 10.68 0 1 0 -21.36 0zM1292.94 178.64 a10.68 10.68 0 1 0 21.36 0 a10.68 10.68 0 1 0 -21.36 0zM1364.91 154.87 a5.87 5.87 0 1 0 11.74 0 a5.87 5.87 0 1 0 -11.74 0zM1331.08 232.07 a3.2 3.2 0 1 0 6.4 0 a3.2 3.2 0 1 0 -6.4 0zM1366.17 224.74 a4.81 4.81 0 1 0 9.62 0 a4.81 4.81 0 1 0 -9.62 0zM1387.34 206.05 a3.2 3.2 0 1 0 6.4 0 a3.2 3.2 0 1 0 -6.4 0z" fill="#8026c3" fill-rule="nonzero"></path><path d="M1319.37 403.07L1319.37 404.93L1330.42 404.93L1330.42 403.07zM1327.12 404 a3.3 3.3 0 1 0 6.6 0 a3.3 3.3 0 1 0 -6.6 0zM1317.02 416.76L1316.31 418.48L1321.4 420.59L1322.11 418.86zM1318.45 419.73 a3.3 3.3 0 1 0 6.6 0 a3.3 3.3 0 1 0 -6.6 0zM1309.61 428.5L1308.29 429.82L1312.73 434.26L1314.05 432.94zM1310.09 433.6 a3.3 3.3 0 1 0 6.6 0 a3.3 3.3 0 1 0 -6.6 0zM1298.26 436.52L1296.54 437.23L1302.21 450.9L1303.93 450.19zM1299.77 450.55 a3.3 3.3 0 1 0 6.6 0 a3.3 3.3 0 1 0 -6.6 0zM1284.72 439.58L1282.85 439.58L1282.85 446.18L1284.72 446.18zM1280.49 446.18 a3.3 3.3 0 1 0 6.6 0 a3.3 3.3 0 1 0 -6.6 0zM1271.03 437.23L1269.31 436.52L1263.46 450.64L1265.18 451.35zM1261.02 450.99 a3.3 3.3 0 1 0 6.6 0 a3.3 3.3 0 1 0 -6.6 0zM1259.28 429.82L1257.96 428.5L1249.78 436.69L1251.09 438.01zM1247.14 437.35 a3.3 3.3 0 1 0 6.6 0 a3.3 3.3 0 1 0 -6.6 0zM1251.27 418.48L1250.55 416.76L1242.44 420.12L1243.15 421.84zM1239.5 420.98 a3.3 3.3 0 1 0 6.6 0 a3.3 3.3 0 1 0 -6.6 0zM1248.2 404.93L1248.2 403.07L1234.09 403.07L1234.09 404.93zM1230.79 404 a3.3 3.3 0 1 0 6.6 0 a3.3 3.3 0 1 0 -6.6 0zM1250.55 391.24L1251.27 389.52L1236.18 383.27L1235.47 384.99zM1232.52 384.13 a3.3 3.3 0 1 0 6.6 0 a3.3 3.3 0 1 0 -6.6 0zM1257.96 379.5L1259.28 378.18L1252.49 371.39L1251.18 372.71zM1248.54 372.05 a3.3 3.3 0 1 0 6.6 0 a3.3 3.3 0 1 0 -6.6 0zM1269.31 371.48L1271.03 370.77L1265.51 357.44L1263.79 358.16zM1261.35 357.8 a3.3 3.3 0 1 0 6.6 0 a3.3 3.3 0 1 0 -6.6 0zM1282.85 368.41L1284.72 368.41L1284.72 358.02L1282.85 358.02zM1280.49 358.02 a3.3 3.3 0 1 0 6.6 0 a3.3 3.3 0 1 0 -6.6 0zM1296.54 370.77L1298.26 371.48L1302.86 360.37L1301.14 359.66zM1298.7 360.02 a3.3 3.3 0 1 0 6.6 0 a3.3 3.3 0 1 0 -6.6 0zM1308.29 378.18L1309.61 379.5L1318.72 370.38L1317.4 369.06zM1314.76 369.72 a3.3 3.3 0 1 0 6.6 0 a3.3 3.3 0 1 0 -6.6 0zM1316.31 389.52L1317.02 391.24L1326.09 387.48L1325.38 385.76zM1322.43 386.62 a3.3 3.3 0 1 0 6.6 0 a3.3 3.3 0 1 0 -6.6 0zM1248.19 404 a35.6 35.6 0 1 0 71.2 0 a35.6 35.6 0 1 0 -71.2 0z" fill="rgba(90, 66, 80, 1)"></path><path d="M1283.15 439.59 A34.5968 34.5968 0 0 1 1253.24 385.71M1253.24 385.71 A71.1936 71.1936 0 0 0 1283.15 439.59" fill="#483540" fill-rule="nonzero"></path><path d="M1282.38 384.11 a7.12 7.12 0 1 0 14.24 0 a7.12 7.12 0 1 0 -14.24 0zM1296.62 398.68 a3.56 3.56 0 1 0 7.12 0 a3.56 3.56 0 1 0 -7.12 0zM1299.42 412 a2.49 2.49 0 1 0 4.98 0 a2.49 2.49 0 1 0 -4.98 0zM1273.44 422.3 a7.12 7.12 0 1 0 14.24 0 a7.12 7.12 0 1 0 -14.24 0zM1259.25 419.17 a3.56 3.56 0 1 0 7.12 0 a3.56 3.56 0 1 0 -7.12 0zM1304.51 381.62 a2.85 2.85 0 1 0 5.7 0 a2.85 2.85 0 1 0 -5.7 0zM1261.79 378.17 a3.56 3.56 0 1 0 7.12 0 a3.56 3.56 0 1 0 -7.12 0zM1255.1 396.78 a7.12 7.12 0 1 0 14.24 0 a7.12 7.12 0 1 0 -14.24 0zM1306.34 422.08 a2.49 2.49 0 1 0 4.98 0 a2.49 2.49 0 1 0 -4.98 0zM1296.75 425.73 a1.42 1.42 0 1 0 2.84 0 a1.42 1.42 0 1 0 -2.84 0z" fill="#483540" fill-rule="nonzero"></path><path d="M518.49 485.18L518.49 487.51L538.02 487.51L538.02 485.18zM533.89 486.34 a4.13 4.13 0 1 0 8.26 0 a4.13 4.13 0 1 0 -8.26 0zM515.55 502.29L514.66 504.44L533.49 512.24L534.38 510.09zM529.8 511.17 a4.13 4.13 0 1 0 8.26 0 a4.13 4.13 0 1 0 -8.26 0zM506.28 516.97L504.64 518.62L513.09 527.08L514.74 525.43zM509.79 526.25 a4.13 4.13 0 1 0 8.26 0 a4.13 4.13 0 1 0 -8.26 0zM492.11 526.99L489.95 527.89L497.96 547.22L500.12 546.33zM494.91 546.78 a4.13 4.13 0 1 0 8.26 0 a4.13 4.13 0 1 0 -8.26 0zM475.17 530.83L472.84 530.83L472.84 552.16L475.17 552.16zM469.88 552.16 a4.13 4.13 0 1 0 8.26 0 a4.13 4.13 0 1 0 -8.26 0zM458.06 527.89L455.91 526.99L448.9 543.92L451.05 544.81zM445.84 544.37 a4.13 4.13 0 1 0 8.26 0 a4.13 4.13 0 1 0 -8.26 0zM443.38 518.62L441.73 516.97L432.04 526.67L433.68 528.32zM428.73 527.49 a4.13 4.13 0 1 0 8.26 0 a4.13 4.13 0 1 0 -8.26 0zM433.36 504.44L432.47 502.29L412.44 510.59L413.33 512.74zM408.75 511.66 a4.13 4.13 0 1 0 8.26 0 a4.13 4.13 0 1 0 -8.26 0zM429.53 487.51L429.53 485.18L416.44 485.18L416.44 487.51zM412.31 486.34 a4.13 4.13 0 1 0 8.26 0 a4.13 4.13 0 1 0 -8.26 0zM432.47 470.4L433.36 468.25L422.95 463.93L422.05 466.09zM418.37 465.01 a4.13 4.13 0 1 0 8.26 0 a4.13 4.13 0 1 0 -8.26 0zM441.73 455.72L443.38 454.07L433.83 444.52L432.18 446.16zM428.87 445.34 a4.13 4.13 0 1 0 8.26 0 a4.13 4.13 0 1 0 -8.26 0zM455.91 445.7L458.06 444.8L454.32 435.78L452.17 436.67zM449.12 436.22 a4.13 4.13 0 1 0 8.26 0 a4.13 4.13 0 1 0 -8.26 0zM472.84 441.86L475.17 441.86L475.17 434.79L472.84 434.79zM469.88 434.79 a4.13 4.13 0 1 0 8.26 0 a4.13 4.13 0 1 0 -8.26 0zM489.95 444.8L492.11 445.7L495.92 436.48L493.77 435.59zM490.71 436.04 a4.13 4.13 0 1 0 8.26 0 a4.13 4.13 0 1 0 -8.26 0zM504.64 454.07L506.28 455.72L517.63 444.37L515.98 442.73zM512.67 443.55 a4.13 4.13 0 1 0 8.26 0 a4.13 4.13 0 1 0 -8.26 0zM514.66 468.25L515.55 470.4L525.64 466.22L524.75 464.07zM521.06 465.14 a4.13 4.13 0 1 0 8.26 0 a4.13 4.13 0 1 0 -8.26 0zM429.51 486.34 a44.5 44.5 0 1 0 89 0 a44.5 44.5 0 1 0 -89 0z" fill="rgba(90, 66, 80, 1)"></path><path d="M501.26 451.17 A43.496 43.496 0 0 1 490.93 527.5M490.93 527.5 A88.992 88.992 0 0 0 501.26 451.17" fill="#483540" fill-rule="nonzero"></path><path d="M458.99 520.91 a8.9 8.9 0 1 0 17.8 0 a8.9 8.9 0 1 0 -17.8 0zM485.63 463.08 a8.9 8.9 0 1 0 17.8 0 a8.9 8.9 0 1 0 -17.8 0zM476.7 486.38 a7.56 7.56 0 1 0 15.12 0 a7.56 7.56 0 1 0 -15.12 0zM485.27 514.67 a8.45 8.45 0 1 0 16.9 0 a8.45 8.45 0 1 0 -16.9 0zM442.57 462.05 a8.9 8.9 0 1 0 17.8 0 a8.9 8.9 0 1 0 -17.8 0zM433.98 481.83 a5.34 5.34 0 1 0 10.68 0 a5.34 5.34 0 1 0 -10.68 0zM442.71 500.16 a6.23 6.23 0 1 0 12.46 0 a6.23 6.23 0 1 0 -12.46 0zM461.53 485.79 a3.11 3.11 0 1 0 6.22 0 a3.11 3.11 0 1 0 -6.22 0zM500.55 489.06 a3.56 3.56 0 1 0 7.12 0 a3.56 3.56 0 1 0 -7.12 0zM472.02 463.47 a2.22 2.22 0 1 0 4.44 0 a2.22 2.22 0 1 0 -4.44 0z" fill="#483540" fill-rule="nonzero"></path></g><defs><mask id="SvgjsMask1059"><rect width="1440" height="560" fill="#ffffff"></rect></mask><linearGradient x1="15.28%" y1="-39.29%" x2="84.72%" y2="139.29%" gradientUnits="userSpaceOnUse" id="SvgjsLinearGradient1060"><stop stop-color="#0e2a47" offset="0"></stop><stop stop-color="rgba(158, 0, 151, 1)" offset="1"></stop></linearGradient></defs></svg>